<svg xmlns="http://www.w3.org/2000/svg" viewBox="0 0 48 48" width="20" height="20"><g><path fill="#4285F4" d="M24 9.5c3.54 0 6.72 1.22 9.22 3.22l6.9-6.9C36.36 2.34 30.55 0 24 0 14.64 0 6.27 5.64 2.13 14.02l8.06 6.27C12.7 13.16 17.89 9.5 24 9.5z"/><path fill="#34A853" d="M46.1 24.5c0-1.64-.15-3.22-.44-4.75H24v9.02h12.44c-.54 2.9-2.16 5.36-4.6 7.02l7.18 5.59C43.73 37.36 46.1 31.44 46.1 24.5z"/><path fill="#FBBC05" d="M10.19 28.29c-.47-1.41-.74-2.91-.74-4.54s.27-3.13.74-4.54l-8.06-6.27C.73 16.55 0 20.13 0 24c0 3.87.73 7.45 2.13 10.81l8.06-6.27z"/><path fill="#EA4335" d="M24 48c6.55 0 12.07-2.17 16.09-5.91l-7.18-5.59c-2.01 1.35-4.59 2.15-7.41 2.15-6.11 0-11.3-3.66-13.81-8.81l-8.06 6.27C6.27 42.36 14.64 48 24 48z"/><path fill="none" d="M0 0h48v48H0z"/></g></svg>
